# xmcd
#
# Track frame offsets:
#	150
#	11484
#	28035
#	37936
#	53739
#	67241
#	78426
#	91950
#	107110
#	118459
#	133262
#	145312
#	155190
#
# Disc length: 2177 seconds
#
# Revision: 2
# Processed by: cddbd v1.5.2PL0 Copyright (c) Steve Scherf et al.
# Submitted via: EZCDAudioConverter 1.3.4.1
#
DISCID=bb087f0d
DTITLE=Various Artist - Charles Brown and Friends - Merry Christmas Baby
DYEAR=2000
DGENRE=Holidays
TTITLE0=Charles Brown - Please Come Home for Christmas
TTITLE1=Charles Brown - Merry Christmas Baby
TTITLE2=Charles Brown - Christmas in Heaven
TTITLE3=Charles Brown - Just a Blessing 
TTITLE4=Lowel Fulson - Lonesome Christmas Part 1
TTITLE5=Bobby Powell - Lonesome Christmas Part 2
TTITLE6=Louis Jordan - The Bells
TTITLE7=Jimmy Reed - Santa Claus, Santa Claus
TTITLE8=The Violinaires - Christmas Present Blues
TTITLE9=The Violinaires - White Christmas
TTITLE10=The Violinaires - Little Jesus Boy
TTITLE11=Big Joe Williams - Christmas Blues
TTITLE12=Ronnie Kole Trio - Silent Night, Holy Night
EXTD=
EXTT0=
EXTT1=
EXTT2=
EXTT3=
EXTT4=
EXTT5=
EXTT6=
EXTT7=
EXTT8=
EXTT9=
EXTT10=
EXTT11=
EXTT12=
PLAYORDER=
